<?xml version="1.0" encoding="UTF-8" standalone="no"?>
<svg
   xmlns:dc="http://purl.org/dc/elements/1.1/"
   xmlns:cc="http://creativecommons.org/ns#"
   xmlns:rdf="http://www.w3.org/1999/02/22-rdf-syntax-ns#"
   xmlns:svg="http://www.w3.org/2000/svg"
   xmlns="http://www.w3.org/2000/svg"
   xmlns:sodipodi="http://sodipodi.sourceforge.net/DTD/sodipodi-0.dtd"
   xmlns:inkscape="http://www.inkscape.org/namespaces/inkscape"
   height="24"
   width="24"
   version="1.1"
   id="svg1080"
   sodipodi:docname="calendar.svg"
   inkscape:version="1.0.1 (3bc2e813f5, 2020-09-07)">
  <metadata
     id="metadata1086">
    <rdf:RDF>
      <cc:Work
         rdf:about="">
        <dc:format>image/svg+xml</dc:format>
        <dc:type
           rdf:resource="http://purl.org/dc/dcmitype/StillImage" />
        <dc:title></dc:title>
      </cc:Work>
    </rdf:RDF>
  </metadata>
  <defs
     id="defs1084" />
  <sodipodi:namedview
     pagecolor="#ffffff"
     bordercolor="#666666"
     borderopacity="1"
     objecttolerance="10"
     gridtolerance="10"
     guidetolerance="10"
     inkscape:pageopacity="0"
     inkscape:pageshadow="2"
     inkscape:window-width="1391"
     inkscape:window-height="886"
     id="namedview1082"
     showgrid="false"
     inkscape:zoom="11.313709"
     inkscape:cx="3.8743907"
     inkscape:cy="12.151176"
     inkscape:window-x="497"
     inkscape:window-y="156"
     inkscape:window-maximized="0"
     inkscape:current-layer="g1078" />
  <g
     transform="translate(0 -1028.4)"
     id="g1078">
    <path
       d="m5 1032.4c-1.1046 0-2 0.9-2 2v14c0 1.1 0.8954 2 2 2h6 2 6c1.105 0 2-0.9 2-2v-14c0-1.1-0.895-2-2-2h-6-2-6z"
       fill="#bdc3c7"
       id="path1056" />
    <path
       d="m5 3c-1.1046 0-2 0.8954-2 2v14c0 1.105 0.8954 2 2 2h6 2 6c1.105 0 2-0.895 2-2v-14c0-1.1046-0.895-2-2-2h-6-2-6z"
       transform="translate(0 1028.4)"
       fill="#ecf0f1"
       id="path1058" />
    <path
       d="m5 3c-1.1046 0-2 0.8954-2 2v3 1h18v-1-3c0-1.1046-0.895-2-2-2h-6-2-6z"
       transform="translate(0 1028.4)"
       fill="#e74c3c"
       id="path1060"
       style="fill:#4b8b79;fill-opacity:1" />
    <path
       d="m7 5.5a1.5 1.5 0 1 1 -3 0 1.5 1.5 0 1 1 3 0z"
       transform="translate(.5 1028.4)"
       fill="#c0392b"
       id="path1062"
       style="fill:#4b8b79;fill-opacity:1" />
    <path
       d="m7 5.5a1.5 1.5 0 1 1 -3 0 1.5 1.5 0 1 1 3 0z"
       transform="translate(12.5 1028.4)"
       fill="#c0392b"
       id="path1064"
       style="fill:#4b8b79;fill-opacity:1" />
    <g
       fill="#bdc3c7"
       id="g1072">
      <path
         d="m5 1039.4v2h2v-2h-2zm3 0v2h2v-2h-2zm3 0v2h2v-2h-2zm3 0v2h2v-2h-2zm3 0v2h2v-2h-2z"
         id="path1066" />
      <path
         d="m5 1042.4v2h2v-2h-2zm3 0v2h2v-2h-2zm3 0v2h2v-2h-2zm3 0v2h2v-2h-2zm3 0v2h2v-2h-2z"
         id="path1068" />
      <path
         d="m5 1045.4v2h2v-2h-2zm3 0v2h2v-2h-2zm3 0v2h2v-2h-2zm3 0v2h2v-2h-2zm3 0v2h2v-2h-2z"
         id="path1070" />
    </g>
    <path
       d="m6 1c-0.5523 0-1 0.4477-1 1v3c0 0.5523 0.4477 1 1 1s1-0.4477 1-1v-3c0-0.5523-0.4477-1-1-1zm12 0c-0.552 0-1 0.4477-1 1v3c0 0.5523 0.448 1 1 1s1-0.4477 1-1v-3c0-0.5523-0.448-1-1-1z"
       transform="translate(0 1028.4)"
       fill="#95a5a6"
       id="path1074" />
    <path
       d="m6 1029.4c-0.5523 0-1 0.4-1 1v2h2v-2c0-0.6-0.4477-1-1-1zm12 0c-0.552 0-1 0.4-1 1v2h2v-2c0-0.6-0.448-1-1-1z"
       fill="#bdc3c7"
       id="path1076" />
    <path
       style="fill:#a0a0a0;stroke:none;stroke-width:0.0288462"
       d="M 3.0038179,6.983454 C 3.0043077,5.8768434 3.016985,4.8769066 3.0319896,4.7613721 3.1289923,4.0144576 3.6243192,3.3954791 4.3315753,3.1373625 4.4666728,3.088058 4.6557449,3.0443887 4.7793585,3.0339395 L 4.9933118,3.0158538 V 3.6861053 4.3563568 L 4.8666662,4.5011317 C 4.7244786,4.6636736 4.599492,4.9003003 4.5420686,5.1156655 4.489208,5.3139178 4.4927162,5.7194693 4.5489478,5.9109107 4.7295892,6.5259078 5.2653719,6.9588075 5.8949376,6.9984381 6.3604689,7.0277429 6.7311772,6.8882025 7.058022,6.5606348 7.3645666,6.2534123 7.501919,5.9269348 7.5025848,5.5039376 7.5031793,5.1263652 7.3926755,4.8217867 7.1446101,4.5172602 L 7.0125426,4.3551336 V 3.6897265 3.0243194 h 4.9903844 4.990385 v 0.6660187 0.6660187 l -0.126646,0.1447749 c -0.142187,0.1625419 -0.267174,0.3991686 -0.324597,0.6145338 -0.05286,0.1982523 -0.04935,0.6038038 0.0069,0.7952452 0.180641,0.6149971 0.716424,1.0478968 1.34599,1.0875274 0.465531,0.029305 0.836239,-0.1102356 1.163084,-0.4378033 0.306545,-0.3072225 0.443897,-0.6337 0.444563,-1.0566972 C 19.5032,5.1263652 19.392696,4.8217867 19.144631,4.5172602 L 19.012543,4.3551336 V 3.6897265 3.0243194 h 0.125193 c 0.06886,0 0.223243,0.025077 0.343082,0.055727 0.710478,0.1817096 1.255849,0.7271445 1.437595,1.4377631 0.05253,0.2053755 0.05567,0.3378955 0.05567,2.347663 V 8.9954732 H 11.988504 3.0029272 Z"
       id="path1088"
       transform="translate(0,1028.4)" />
    <path
       style="fill:#4b8b79;stroke:none;stroke-width:0.0288462;fill-opacity:1"
       d="M 3.0200336,6.9113386 C 3.0372126,4.5821848 3.037969,4.5725559 3.2363334,4.1577426 3.5382023,3.5264843 4.1089074,3.1294079 4.8418695,3.0406675 L 4.9933118,3.0223323 V 3.6727718 4.3232113 L 4.8588156,4.4883365 C 4.7848426,4.5791553 4.677758,4.7509671 4.6208498,4.8701405 4.5225816,5.0759271 4.5168702,5.104497 4.5072345,5.4384797 c -0.00869,0.3011401 -0.00118,0.3785952 0.052246,0.5391476 0.160477,0.4822335 0.5560015,0.8558348 1.0433917,0.9855582 0.1792308,0.047704 0.5879843,0.053694 0.7718307,0.011311 0.2225339,-0.051302 0.4372901,-0.1736463 0.6392714,-0.3641853 0.3642583,-0.3436226 0.488953,-0.6248013 0.488953,-1.1025566 0,-0.4204821 -0.078132,-0.6453984 -0.3452766,-0.9939433 L 7.0125426,4.3244881 V 3.6744037 3.0243194 h 4.9903844 4.990385 v 0.649446 0.6494459 l -0.134497,0.1651252 c -0.07397,0.090819 -0.181057,0.2626306 -0.237965,0.381804 -0.09827,0.2057866 -0.10398,0.2343565 -0.113615,0.5683392 -0.0087,0.3011401 -0.0012,0.3785952 0.05224,0.5391476 0.160477,0.4822335 0.556002,0.8558348 1.043392,0.9855582 0.179231,0.047704 0.587984,0.053694 0.771831,0.011311 0.222534,-0.051302 0.43729,-0.1736463 0.639271,-0.3641853 0.364259,-0.3436226 0.488953,-0.6248013 0.488953,-1.1025566 0,-0.4204821 -0.07813,-0.6453984 -0.345276,-0.9939433 L 19.012543,4.3244881 V 3.6716969 3.0189056 l 0.151442,0.019549 c 0.731433,0.094418 1.308776,0.4979587 1.607288,1.1234333 0.168987,0.3540811 0.169385,0.359666 0.191552,2.6917583 l 0.02036,2.1418269 H 11.993923 3.0046618 Z"
       id="path1090"
       transform="translate(0,1028.4)" />
    <path
       style="fill:#4bb679;stroke:none;stroke-width:0.0407946;fill-opacity:1"
       d="M 3.0368307,7.061278 C 3.0580869,4.782644 3.0769025,4.5493928 3.271298,4.1546612 3.5699199,3.5482913 4.0879003,3.1848722 4.8351415,3.0574562 L 4.967724,3.0348488 V 3.6708787 4.3069086 L 4.8300654,4.49595 c -0.285789,0.3924634 -0.3268533,0.5152472 -0.3292719,0.9845364 -0.00187,0.3620932 0.012109,0.4593887 0.09036,0.629067 0.28213,0.6117684 0.8902228,0.9649878 1.5642086,0.9085926 C 6.4901064,6.9901367 6.7470266,6.8722968 7.0227372,6.620313 7.6325658,6.062964 7.6933421,5.1614335 7.1659777,4.495545 L 7.0482498,4.3468933 V 3.6898512 3.0328091 h 4.9565462 4.956547 V 3.6695379 4.3062668 L 16.759048,4.608723 c -0.230243,0.3442417 -0.264247,0.4678885 -0.262181,0.9533527 0.0011,0.2614044 0.02219,0.3919395 0.08563,0.5303301 0.289601,0.6317669 0.887048,0.9825939 1.575255,0.9250053 0.347533,-0.029081 0.593886,-0.1448117 0.877844,-0.4123891 0.287418,-0.2708386 0.40082,-0.4737356 0.461034,-0.8248804 0.07645,-0.4458231 0.0013,-0.791941 -0.255007,-1.1752225 L 19.041869,4.3062668 V 3.6721027 3.0379387 l 0.152979,0.022911 c 0.254824,0.038164 0.631533,0.1752832 0.831468,0.3026482 0.285963,0.1821673 0.595478,0.5339871 0.738321,0.8392356 l 0.127817,0.2731387 0.03062,1.124425 c 0.01684,0.6184338 0.03186,1.6338478 0.03338,2.2564758 l 0.0028,1.1320507 H 11.989033 3.0188496 Z"
       id="path1098"
       transform="translate(0,1028.4)" />
  </g>
</svg>
